<mxfile host="app.diagrams.net" modified="2023-06-12T15:15:06.561Z" agent="Mozilla/5.0 (Windows NT 10.0; Win64; x64) AppleWebKit/537.36 (KHTML, like Gecko) Chrome/114.0.0.0 Safari/537.36" etag="hbnU9KzDTJiIXL-6HW7U" version="21.3.8" type="device">
  <diagram name="Страница 1" id="EQp-g6z_D0LRcIQLmuGU">
    <mxGraphModel dx="2183" dy="1217" grid="1" gridSize="10" guides="1" tooltips="1" connect="1" arrows="1" fold="1" page="1" pageScale="1" pageWidth="827" pageHeight="1169" math="0" shadow="0">
      <root>
        <mxCell id="0" />
        <mxCell id="1" parent="0" />
        <mxCell id="v-adlTQcLmNc1ZloNbtx-120" value="" style="rounded=1;whiteSpace=wrap;html=1;dashed=1;" vertex="1" parent="1">
          <mxGeometry x="160" y="1360" width="400" height="270" as="geometry" />
        </mxCell>
        <mxCell id="v-adlTQcLmNc1ZloNbtx-117" value="" style="rounded=1;whiteSpace=wrap;html=1;dashed=1;" vertex="1" parent="1">
          <mxGeometry x="175" y="80" width="630" height="300" as="geometry" />
        </mxCell>
        <mxCell id="v-adlTQcLmNc1ZloNbtx-62" value="" style="rounded=1;whiteSpace=wrap;html=1;dashed=1;" vertex="1" parent="1">
          <mxGeometry x="180" y="970" width="400" height="300" as="geometry" />
        </mxCell>
        <mxCell id="v-adlTQcLmNc1ZloNbtx-11" style="edgeStyle=orthogonalEdgeStyle;rounded=0;orthogonalLoop=1;jettySize=auto;html=1;entryX=0;entryY=0.5;entryDx=0;entryDy=0;" edge="1" parent="1" source="v-adlTQcLmNc1ZloNbtx-1" target="v-adlTQcLmNc1ZloNbtx-6">
          <mxGeometry relative="1" as="geometry" />
        </mxCell>
        <mxCell id="v-adlTQcLmNc1ZloNbtx-1" value="Plugin analizer" style="rounded=1;whiteSpace=wrap;html=1;" vertex="1" parent="1">
          <mxGeometry x="230" y="140" width="120" height="60" as="geometry" />
        </mxCell>
        <mxCell id="v-adlTQcLmNc1ZloNbtx-8" style="edgeStyle=orthogonalEdgeStyle;rounded=0;orthogonalLoop=1;jettySize=auto;html=1;" edge="1" parent="1" source="v-adlTQcLmNc1ZloNbtx-2" target="v-adlTQcLmNc1ZloNbtx-1">
          <mxGeometry relative="1" as="geometry" />
        </mxCell>
        <mxCell id="v-adlTQcLmNc1ZloNbtx-2" value="Terraform plugin" style="ellipse;whiteSpace=wrap;html=1;" vertex="1" parent="1">
          <mxGeometry x="30" y="130" width="120" height="80" as="geometry" />
        </mxCell>
        <mxCell id="v-adlTQcLmNc1ZloNbtx-9" style="edgeStyle=orthogonalEdgeStyle;rounded=0;orthogonalLoop=1;jettySize=auto;html=1;entryX=0;entryY=0.5;entryDx=0;entryDy=0;" edge="1" parent="1" source="v-adlTQcLmNc1ZloNbtx-3" target="v-adlTQcLmNc1ZloNbtx-5">
          <mxGeometry relative="1" as="geometry" />
        </mxCell>
        <mxCell id="v-adlTQcLmNc1ZloNbtx-3" value="Terraform docs" style="ellipse;whiteSpace=wrap;html=1;" vertex="1" parent="1">
          <mxGeometry x="30" y="260" width="120" height="80" as="geometry" />
        </mxCell>
        <mxCell id="v-adlTQcLmNc1ZloNbtx-10" style="edgeStyle=orthogonalEdgeStyle;rounded=0;orthogonalLoop=1;jettySize=auto;html=1;entryX=0;entryY=0.5;entryDx=0;entryDy=0;" edge="1" parent="1" source="v-adlTQcLmNc1ZloNbtx-5" target="v-adlTQcLmNc1ZloNbtx-7">
          <mxGeometry relative="1" as="geometry" />
        </mxCell>
        <mxCell id="v-adlTQcLmNc1ZloNbtx-5" value="Docs analizer" style="rounded=1;whiteSpace=wrap;html=1;" vertex="1" parent="1">
          <mxGeometry x="230" y="270" width="120" height="60" as="geometry" />
        </mxCell>
        <mxCell id="v-adlTQcLmNc1ZloNbtx-13" style="edgeStyle=orthogonalEdgeStyle;rounded=0;orthogonalLoop=1;jettySize=auto;html=1;entryX=0;entryY=0.5;entryDx=0;entryDy=0;" edge="1" parent="1" source="v-adlTQcLmNc1ZloNbtx-6" target="v-adlTQcLmNc1ZloNbtx-15">
          <mxGeometry relative="1" as="geometry" />
        </mxCell>
        <mxCell id="v-adlTQcLmNc1ZloNbtx-6" value="Plugin.json" style="ellipse;whiteSpace=wrap;html=1;" vertex="1" parent="1">
          <mxGeometry x="430" y="130" width="120" height="80" as="geometry" />
        </mxCell>
        <mxCell id="v-adlTQcLmNc1ZloNbtx-14" style="edgeStyle=orthogonalEdgeStyle;rounded=0;orthogonalLoop=1;jettySize=auto;html=1;entryX=0;entryY=0.5;entryDx=0;entryDy=0;" edge="1" parent="1" source="v-adlTQcLmNc1ZloNbtx-7" target="v-adlTQcLmNc1ZloNbtx-12">
          <mxGeometry relative="1" as="geometry" />
        </mxCell>
        <mxCell id="v-adlTQcLmNc1ZloNbtx-7" value="Docs.json" style="ellipse;whiteSpace=wrap;html=1;" vertex="1" parent="1">
          <mxGeometry x="430" y="260" width="120" height="80" as="geometry" />
        </mxCell>
        <mxCell id="v-adlTQcLmNc1ZloNbtx-16" style="edgeStyle=orthogonalEdgeStyle;rounded=0;orthogonalLoop=1;jettySize=auto;html=1;entryX=0.5;entryY=1;entryDx=0;entryDy=0;" edge="1" parent="1" source="v-adlTQcLmNc1ZloNbtx-12" target="v-adlTQcLmNc1ZloNbtx-15">
          <mxGeometry relative="1" as="geometry" />
        </mxCell>
        <mxCell id="v-adlTQcLmNc1ZloNbtx-12" value="Metadata creator" style="rounded=0;whiteSpace=wrap;html=1;" vertex="1" parent="1">
          <mxGeometry x="640" y="270" width="120" height="60" as="geometry" />
        </mxCell>
        <mxCell id="v-adlTQcLmNc1ZloNbtx-18" style="edgeStyle=orthogonalEdgeStyle;rounded=0;orthogonalLoop=1;jettySize=auto;html=1;entryX=0;entryY=0.5;entryDx=0;entryDy=0;" edge="1" parent="1" source="v-adlTQcLmNc1ZloNbtx-15" target="v-adlTQcLmNc1ZloNbtx-17">
          <mxGeometry relative="1" as="geometry" />
        </mxCell>
        <mxCell id="v-adlTQcLmNc1ZloNbtx-15" value="Case classes&lt;br&gt;creator" style="rounded=0;whiteSpace=wrap;html=1;" vertex="1" parent="1">
          <mxGeometry x="640" y="140" width="120" height="60" as="geometry" />
        </mxCell>
        <mxCell id="v-adlTQcLmNc1ZloNbtx-17" value="HCL generator" style="ellipse;whiteSpace=wrap;html=1;" vertex="1" parent="1">
          <mxGeometry x="827" y="130" width="120" height="80" as="geometry" />
        </mxCell>
        <mxCell id="v-adlTQcLmNc1ZloNbtx-69" style="edgeStyle=orthogonalEdgeStyle;rounded=0;orthogonalLoop=1;jettySize=auto;html=1;entryX=0;entryY=0.5;entryDx=0;entryDy=0;" edge="1" parent="1" source="v-adlTQcLmNc1ZloNbtx-63" target="v-adlTQcLmNc1ZloNbtx-66">
          <mxGeometry relative="1" as="geometry">
            <Array as="points">
              <mxPoint x="80" y="1030" />
            </Array>
          </mxGeometry>
        </mxCell>
        <mxCell id="v-adlTQcLmNc1ZloNbtx-63" value="Kuber state" style="ellipse;whiteSpace=wrap;html=1;" vertex="1" parent="1">
          <mxGeometry x="20" y="1060" width="120" height="80" as="geometry" />
        </mxCell>
        <mxCell id="v-adlTQcLmNc1ZloNbtx-65" value="Autoscaler" style="text;html=1;align=center;verticalAlign=middle;resizable=0;points=[];autosize=1;strokeColor=none;fillColor=none;fontSize=17;" vertex="1" parent="1">
          <mxGeometry x="320" y="920" width="100" height="30" as="geometry" />
        </mxCell>
        <mxCell id="v-adlTQcLmNc1ZloNbtx-70" style="edgeStyle=orthogonalEdgeStyle;rounded=0;orthogonalLoop=1;jettySize=auto;html=1;entryX=0;entryY=0.5;entryDx=0;entryDy=0;" edge="1" parent="1" source="v-adlTQcLmNc1ZloNbtx-66" target="v-adlTQcLmNc1ZloNbtx-68">
          <mxGeometry relative="1" as="geometry" />
        </mxCell>
        <mxCell id="v-adlTQcLmNc1ZloNbtx-66" value="Api decoder" style="rounded=0;whiteSpace=wrap;html=1;" vertex="1" parent="1">
          <mxGeometry x="210" y="1000" width="130" height="60" as="geometry" />
        </mxCell>
        <mxCell id="v-adlTQcLmNc1ZloNbtx-76" style="edgeStyle=orthogonalEdgeStyle;rounded=0;orthogonalLoop=1;jettySize=auto;html=1;entryX=0.5;entryY=1;entryDx=0;entryDy=0;startArrow=none;startFill=0;" edge="1" parent="1" source="v-adlTQcLmNc1ZloNbtx-67" target="v-adlTQcLmNc1ZloNbtx-73">
          <mxGeometry relative="1" as="geometry" />
        </mxCell>
        <mxCell id="v-adlTQcLmNc1ZloNbtx-85" style="edgeStyle=orthogonalEdgeStyle;rounded=0;orthogonalLoop=1;jettySize=auto;html=1;entryX=1;entryY=0.5;entryDx=0;entryDy=0;" edge="1" parent="1" source="v-adlTQcLmNc1ZloNbtx-67" target="v-adlTQcLmNc1ZloNbtx-84">
          <mxGeometry relative="1" as="geometry" />
        </mxCell>
        <mxCell id="v-adlTQcLmNc1ZloNbtx-67" value="Scaler" style="rounded=0;whiteSpace=wrap;html=1;" vertex="1" parent="1">
          <mxGeometry x="414" y="1170" width="130" height="60" as="geometry" />
        </mxCell>
        <mxCell id="v-adlTQcLmNc1ZloNbtx-71" style="edgeStyle=orthogonalEdgeStyle;rounded=0;orthogonalLoop=1;jettySize=auto;html=1;entryX=0.5;entryY=0;entryDx=0;entryDy=0;" edge="1" parent="1" source="v-adlTQcLmNc1ZloNbtx-68" target="v-adlTQcLmNc1ZloNbtx-67">
          <mxGeometry relative="1" as="geometry" />
        </mxCell>
        <mxCell id="v-adlTQcLmNc1ZloNbtx-68" value="Resource analizer" style="rounded=0;whiteSpace=wrap;html=1;" vertex="1" parent="1">
          <mxGeometry x="413.5" y="1000" width="130" height="60" as="geometry" />
        </mxCell>
        <mxCell id="v-adlTQcLmNc1ZloNbtx-74" style="edgeStyle=orthogonalEdgeStyle;rounded=0;orthogonalLoop=1;jettySize=auto;html=1;entryX=1;entryY=0.5;entryDx=0;entryDy=0;" edge="1" parent="1" source="v-adlTQcLmNc1ZloNbtx-73" target="v-adlTQcLmNc1ZloNbtx-68">
          <mxGeometry relative="1" as="geometry">
            <Array as="points">
              <mxPoint x="700" y="1030" />
            </Array>
          </mxGeometry>
        </mxCell>
        <mxCell id="v-adlTQcLmNc1ZloNbtx-91" style="edgeStyle=orthogonalEdgeStyle;rounded=0;orthogonalLoop=1;jettySize=auto;html=1;entryX=0;entryY=0.5;entryDx=0;entryDy=0;" edge="1" parent="1" source="v-adlTQcLmNc1ZloNbtx-73" target="v-adlTQcLmNc1ZloNbtx-90">
          <mxGeometry relative="1" as="geometry" />
        </mxCell>
        <mxCell id="v-adlTQcLmNc1ZloNbtx-73" value="Terraform&lt;br&gt;package" style="rounded=0;whiteSpace=wrap;html=1;" vertex="1" parent="1">
          <mxGeometry x="640" y="1080" width="120" height="60" as="geometry" />
        </mxCell>
        <mxCell id="v-adlTQcLmNc1ZloNbtx-78" value="State" style="text;html=1;align=center;verticalAlign=middle;resizable=0;points=[];autosize=1;strokeColor=none;fillColor=none;" vertex="1" parent="1">
          <mxGeometry x="605" y="1008" width="50" height="30" as="geometry" />
        </mxCell>
        <mxCell id="v-adlTQcLmNc1ZloNbtx-79" value="New state" style="text;html=1;align=center;verticalAlign=middle;resizable=0;points=[];autosize=1;strokeColor=none;fillColor=none;" vertex="1" parent="1">
          <mxGeometry x="600" y="1170" width="80" height="30" as="geometry" />
        </mxCell>
        <mxCell id="v-adlTQcLmNc1ZloNbtx-86" style="edgeStyle=orthogonalEdgeStyle;rounded=0;orthogonalLoop=1;jettySize=auto;html=1;entryX=0.5;entryY=1;entryDx=0;entryDy=0;" edge="1" parent="1" source="v-adlTQcLmNc1ZloNbtx-84" target="v-adlTQcLmNc1ZloNbtx-63">
          <mxGeometry relative="1" as="geometry" />
        </mxCell>
        <mxCell id="v-adlTQcLmNc1ZloNbtx-84" value="Resheduler" style="rounded=0;whiteSpace=wrap;html=1;" vertex="1" parent="1">
          <mxGeometry x="210" y="1170" width="130" height="60" as="geometry" />
        </mxCell>
        <mxCell id="v-adlTQcLmNc1ZloNbtx-87" value="State" style="text;html=1;align=center;verticalAlign=middle;resizable=0;points=[];autosize=1;strokeColor=none;fillColor=none;" vertex="1" parent="1">
          <mxGeometry x="120" y="1000" width="50" height="30" as="geometry" />
        </mxCell>
        <mxCell id="v-adlTQcLmNc1ZloNbtx-89" value="New state" style="text;html=1;align=center;verticalAlign=middle;resizable=0;points=[];autosize=1;strokeColor=none;fillColor=none;" vertex="1" parent="1">
          <mxGeometry x="105" y="1170" width="80" height="30" as="geometry" />
        </mxCell>
        <mxCell id="v-adlTQcLmNc1ZloNbtx-90" value="Infrastructure" style="ellipse;whiteSpace=wrap;html=1;" vertex="1" parent="1">
          <mxGeometry x="827" y="1070" width="120" height="80" as="geometry" />
        </mxCell>
        <mxCell id="v-adlTQcLmNc1ZloNbtx-101" value="" style="rounded=1;whiteSpace=wrap;html=1;dashed=1;" vertex="1" parent="1">
          <mxGeometry x="210" y="460" width="380" height="300" as="geometry" />
        </mxCell>
        <mxCell id="v-adlTQcLmNc1ZloNbtx-102" style="edgeStyle=orthogonalEdgeStyle;rounded=0;orthogonalLoop=1;jettySize=auto;html=1;entryX=0.5;entryY=0;entryDx=0;entryDy=0;exitX=0.5;exitY=1;exitDx=0;exitDy=0;" edge="1" parent="1" source="v-adlTQcLmNc1ZloNbtx-116" target="v-adlTQcLmNc1ZloNbtx-105">
          <mxGeometry relative="1" as="geometry">
            <mxPoint x="307" y="590" as="sourcePoint" />
          </mxGeometry>
        </mxCell>
        <mxCell id="v-adlTQcLmNc1ZloNbtx-104" style="edgeStyle=orthogonalEdgeStyle;rounded=0;orthogonalLoop=1;jettySize=auto;html=1;entryX=0;entryY=0.5;entryDx=0;entryDy=0;" edge="1" parent="1" source="v-adlTQcLmNc1ZloNbtx-105" target="v-adlTQcLmNc1ZloNbtx-108">
          <mxGeometry relative="1" as="geometry" />
        </mxCell>
        <mxCell id="v-adlTQcLmNc1ZloNbtx-105" value="HCL" style="ellipse;whiteSpace=wrap;html=1;" vertex="1" parent="1">
          <mxGeometry x="247" y="640" width="120" height="80" as="geometry" />
        </mxCell>
        <mxCell id="v-adlTQcLmNc1ZloNbtx-106" style="edgeStyle=orthogonalEdgeStyle;rounded=0;orthogonalLoop=1;jettySize=auto;html=1;entryX=0;entryY=0.5;entryDx=0;entryDy=0;" edge="1" parent="1" source="v-adlTQcLmNc1ZloNbtx-108" target="v-adlTQcLmNc1ZloNbtx-110">
          <mxGeometry relative="1" as="geometry" />
        </mxCell>
        <mxCell id="v-adlTQcLmNc1ZloNbtx-107" style="edgeStyle=orthogonalEdgeStyle;rounded=0;orthogonalLoop=1;jettySize=auto;html=1;entryX=0;entryY=0.5;entryDx=0;entryDy=0;" edge="1" parent="1" source="v-adlTQcLmNc1ZloNbtx-108" target="v-adlTQcLmNc1ZloNbtx-109">
          <mxGeometry relative="1" as="geometry">
            <Array as="points">
              <mxPoint x="480" y="540" />
            </Array>
          </mxGeometry>
        </mxCell>
        <mxCell id="v-adlTQcLmNc1ZloNbtx-108" value="HCL Deployer" style="rounded=0;whiteSpace=wrap;html=1;" vertex="1" parent="1">
          <mxGeometry x="430" y="650" width="120" height="60" as="geometry" />
        </mxCell>
        <mxCell id="v-adlTQcLmNc1ZloNbtx-109" value="Infrastructure" style="ellipse;whiteSpace=wrap;html=1;" vertex="1" parent="1">
          <mxGeometry x="620" y="500" width="120" height="80" as="geometry" />
        </mxCell>
        <mxCell id="v-adlTQcLmNc1ZloNbtx-110" value="State" style="ellipse;whiteSpace=wrap;html=1;" vertex="1" parent="1">
          <mxGeometry x="620" y="640" width="120" height="80" as="geometry" />
        </mxCell>
        <mxCell id="v-adlTQcLmNc1ZloNbtx-111" value="Terraform&lt;br style=&quot;font-size: 17px;&quot;&gt;package" style="text;html=1;align=center;verticalAlign=middle;resizable=0;points=[];autosize=1;strokeColor=none;fillColor=none;fontSize=17;" vertex="1" parent="1">
          <mxGeometry x="340" y="400" width="100" height="50" as="geometry" />
        </mxCell>
        <mxCell id="v-adlTQcLmNc1ZloNbtx-114" style="edgeStyle=orthogonalEdgeStyle;rounded=0;orthogonalLoop=1;jettySize=auto;html=1;entryX=0;entryY=0.5;entryDx=0;entryDy=0;exitX=0.5;exitY=0;exitDx=0;exitDy=0;" edge="1" parent="1" source="v-adlTQcLmNc1ZloNbtx-113" target="v-adlTQcLmNc1ZloNbtx-116">
          <mxGeometry relative="1" as="geometry">
            <mxPoint x="247" y="550" as="targetPoint" />
          </mxGeometry>
        </mxCell>
        <mxCell id="v-adlTQcLmNc1ZloNbtx-115" style="edgeStyle=orthogonalEdgeStyle;rounded=0;orthogonalLoop=1;jettySize=auto;html=1;entryX=0.5;entryY=1;entryDx=0;entryDy=0;" edge="1" parent="1" source="v-adlTQcLmNc1ZloNbtx-113" target="v-adlTQcLmNc1ZloNbtx-108">
          <mxGeometry relative="1" as="geometry">
            <Array as="points">
              <mxPoint x="80" y="830" />
              <mxPoint x="490" y="830" />
            </Array>
          </mxGeometry>
        </mxCell>
        <mxCell id="v-adlTQcLmNc1ZloNbtx-113" value="Instructions from&lt;br&gt;other module" style="ellipse;whiteSpace=wrap;html=1;" vertex="1" parent="1">
          <mxGeometry x="20" y="585" width="120" height="80" as="geometry" />
        </mxCell>
        <mxCell id="v-adlTQcLmNc1ZloNbtx-116" value="HCL generator" style="rounded=0;whiteSpace=wrap;html=1;" vertex="1" parent="1">
          <mxGeometry x="247" y="520" width="120" height="60" as="geometry" />
        </mxCell>
        <mxCell id="v-adlTQcLmNc1ZloNbtx-118" value="Case classes&lt;br&gt;generator" style="text;html=1;align=center;verticalAlign=middle;resizable=0;points=[];autosize=1;strokeColor=none;fillColor=none;fontSize=17;" vertex="1" parent="1">
          <mxGeometry x="419" y="20" width="120" height="50" as="geometry" />
        </mxCell>
        <mxCell id="v-adlTQcLmNc1ZloNbtx-127" style="edgeStyle=orthogonalEdgeStyle;rounded=0;orthogonalLoop=1;jettySize=auto;html=1;entryX=0.5;entryY=0;entryDx=0;entryDy=0;" edge="1" parent="1" source="v-adlTQcLmNc1ZloNbtx-121" target="v-adlTQcLmNc1ZloNbtx-126">
          <mxGeometry relative="1" as="geometry" />
        </mxCell>
        <mxCell id="v-adlTQcLmNc1ZloNbtx-130" style="edgeStyle=orthogonalEdgeStyle;rounded=0;orthogonalLoop=1;jettySize=auto;html=1;entryX=0;entryY=0.5;entryDx=0;entryDy=0;" edge="1" parent="1" source="v-adlTQcLmNc1ZloNbtx-121" target="v-adlTQcLmNc1ZloNbtx-128">
          <mxGeometry relative="1" as="geometry" />
        </mxCell>
        <mxCell id="v-adlTQcLmNc1ZloNbtx-121" value="Config parser" style="rounded=0;whiteSpace=wrap;html=1;" vertex="1" parent="1">
          <mxGeometry x="185" y="1390" width="130" height="60" as="geometry" />
        </mxCell>
        <mxCell id="v-adlTQcLmNc1ZloNbtx-122" value="Terraform deployer" style="text;html=1;align=center;verticalAlign=middle;resizable=0;points=[];autosize=1;strokeColor=none;fillColor=none;fontSize=17;" vertex="1" parent="1">
          <mxGeometry x="275" y="1320" width="170" height="30" as="geometry" />
        </mxCell>
        <mxCell id="v-adlTQcLmNc1ZloNbtx-124" style="edgeStyle=orthogonalEdgeStyle;rounded=0;orthogonalLoop=1;jettySize=auto;html=1;entryX=0;entryY=0.5;entryDx=0;entryDy=0;exitX=0.5;exitY=0;exitDx=0;exitDy=0;" edge="1" parent="1" source="v-adlTQcLmNc1ZloNbtx-123" target="v-adlTQcLmNc1ZloNbtx-121">
          <mxGeometry relative="1" as="geometry" />
        </mxCell>
        <mxCell id="v-adlTQcLmNc1ZloNbtx-123" value="Cluster config" style="ellipse;whiteSpace=wrap;html=1;" vertex="1" parent="1">
          <mxGeometry x="20" y="1470" width="120" height="80" as="geometry" />
        </mxCell>
        <mxCell id="v-adlTQcLmNc1ZloNbtx-135" style="edgeStyle=orthogonalEdgeStyle;rounded=0;orthogonalLoop=1;jettySize=auto;html=1;entryX=0;entryY=0.5;entryDx=0;entryDy=0;" edge="1" parent="1" source="v-adlTQcLmNc1ZloNbtx-126" target="v-adlTQcLmNc1ZloNbtx-134">
          <mxGeometry relative="1" as="geometry" />
        </mxCell>
        <mxCell id="v-adlTQcLmNc1ZloNbtx-126" value="Terraform package" style="rounded=0;whiteSpace=wrap;html=1;" vertex="1" parent="1">
          <mxGeometry x="190" y="1540" width="120" height="60" as="geometry" />
        </mxCell>
        <mxCell id="v-adlTQcLmNc1ZloNbtx-129" style="edgeStyle=orthogonalEdgeStyle;rounded=0;orthogonalLoop=1;jettySize=auto;html=1;entryX=0.75;entryY=0;entryDx=0;entryDy=0;exitX=0.5;exitY=1;exitDx=0;exitDy=0;" edge="1" parent="1" source="v-adlTQcLmNc1ZloNbtx-128" target="v-adlTQcLmNc1ZloNbtx-126">
          <mxGeometry relative="1" as="geometry">
            <Array as="points">
              <mxPoint x="470" y="1490" />
              <mxPoint x="280" y="1490" />
            </Array>
          </mxGeometry>
        </mxCell>
        <mxCell id="v-adlTQcLmNc1ZloNbtx-128" value="Autoscaler" style="rounded=1;whiteSpace=wrap;html=1;" vertex="1" parent="1">
          <mxGeometry x="410" y="1390" width="120" height="60" as="geometry" />
        </mxCell>
        <mxCell id="v-adlTQcLmNc1ZloNbtx-131" value="Settings" style="text;html=1;align=center;verticalAlign=middle;resizable=0;points=[];autosize=1;strokeColor=none;fillColor=none;" vertex="1" parent="1">
          <mxGeometry x="325" y="1390" width="70" height="30" as="geometry" />
        </mxCell>
        <mxCell id="v-adlTQcLmNc1ZloNbtx-132" value="New state" style="text;html=1;align=center;verticalAlign=middle;resizable=0;points=[];autosize=1;strokeColor=none;fillColor=none;" vertex="1" parent="1">
          <mxGeometry x="170" y="1470" width="80" height="30" as="geometry" />
        </mxCell>
        <mxCell id="v-adlTQcLmNc1ZloNbtx-133" value="Autoscaler.jar" style="text;html=1;align=center;verticalAlign=middle;resizable=0;points=[];autosize=1;strokeColor=none;fillColor=none;" vertex="1" parent="1">
          <mxGeometry x="315" y="1460" width="100" height="30" as="geometry" />
        </mxCell>
        <mxCell id="v-adlTQcLmNc1ZloNbtx-134" value="Infrastructure" style="ellipse;whiteSpace=wrap;html=1;" vertex="1" parent="1">
          <mxGeometry x="620" y="1480" width="120" height="80" as="geometry" />
        </mxCell>
      </root>
    </mxGraphModel>
  </diagram>
</mxfile>
